# xmcd
#
# Track frame offsets:
#  150
#  16575
#  33625
#  49233
#  63643
#  86538
#  107745
#  123186
#
# Disc length: 1933 seconds
#
# Revision: 0
# Processed by: cddbd v1.5.1PL2 Copyright (c) Steve Scherf et al.
# Submitted via: Collectorz.com_Music_Collector 6.11
#
DISCID=61078b08
DTITLE=Meera Mohun - Waves
DYEAR=1900
DGENRE=Sega
TTITLE0=Bhangra beats
TTITLE1=Holé holé
TTITLE2=Ihsq ( L'amour )
TTITLE3=Salsa waves
TTITLE4=Beloved country
TTITLE5=Moments
TTITLE6=Gratitude
TTITLE7=The Heroine
EXTD=
EXTT0=
EXTT1=
EXTT2=
EXTT3=
EXTT4=
EXTT5=
EXTT6=
EXTT7=
PLAYORDER=
